# xmcd
#
# Track frame offsets: 
#        150
#        18831
#        45396
#        70307
#        88532
#        104633
#        116630
#        135436
#        157908
#        179712
#        193844
#        212510
#        238389
#
# Disc length: 3472 seconds
#
# Revision: 17
# Processed by: cddbd v1.5.2PL0 Copyright (c) Steve Scherf et al.
# Submitted via: ExactAudioCopy v1.0b4
#
DISCID=b40d8e0d
DTITLE=Eva Cassidy - Live at Blues Alley [G2-10046]
DYEAR=1996
DGENRE=Blues
TTITLE0=Cheek to Cheek
TTITLE1=Stormy Monday
TTITLE2=Bridge over Troubled Water
TTITLE3=Fine and Mellow
TTITLE4=People Get Ready
TTITLE5=Blue Skies
TTITLE6=Tall Trees in Georgia
TTITLE7=Fields of Gold
TTITLE8=Autumn Leaves
TTITLE9=Honeysuckle Rose
TTITLE10=Take Me to the River
TTITLE11=What a Wonderful World
TTITLE12=Oh, Had I a Golden Thread
EXTD=Recorded Live at Blues Alley January 2 and 3, 1996
EXTT0=
EXTT1=
EXTT2=
EXTT3=
EXTT4=
EXTT5=
EXTT6=
EXTT7=
EXTT8=
EXTT9=
EXTT10=
EXTT11=
EXTT12=
PLAYORDER=
